<?xml version="1.0" encoding="UTF-8" standalone="no"?>
<!DOCTYPE svg PUBLIC "-//W3C//DTD SVG 1.1//EN" "http://www.w3.org/Graphics/SVG/1.1/DTD/svg11.dtd">
<svg width="100%" height="100%" viewBox="0 0 3993 3211" version="1.1" xmlns="http://www.w3.org/2000/svg" xmlns:xlink="http://www.w3.org/1999/xlink" xml:space="preserve" xmlns:serif="http://www.serif.com/" style="fill-rule:evenodd;clip-rule:evenodd;stroke-linecap:round;stroke-linejoin:round;stroke-miterlimit:1.5;">
    <g transform="matrix(1,0,0,1,-29984.363829,-26984.64399)">
        <g id="Artboard4" transform="matrix(0.135353,0,0,0.166009,25925.877346,23765.347383)">
            <rect x="29984.364" y="19392.244" width="29499.946" height="19342.244" style="fill:none;"/>
            <g transform="matrix(58.077735,0,0,47.352837,-48954.037234,-40188.529619)">
                <path d="M1590.783,1351.278C1590.225,1348.888 1589.943,1346.441 1589.943,1343.986C1589.943,1326.286 1604.314,1311.915 1622.015,1311.915C1639.715,1311.915 1654.086,1326.286 1654.086,1343.986C1654.086,1346.441 1653.804,1348.888 1653.246,1351.278L1630.866,1447.135L1702.69,1379.825C1704.481,1378.146 1706.459,1376.679 1708.585,1375.451C1723.914,1366.601 1743.545,1371.861 1752.395,1387.19C1761.246,1402.52 1755.986,1422.15 1740.657,1431.001C1738.531,1432.228 1736.271,1433.207 1733.922,1433.919L1639.716,1462.466L1733.922,1491.012C1736.271,1491.724 1738.531,1492.703 1740.657,1493.931C1755.986,1502.781 1761.246,1522.412 1752.395,1537.741C1743.545,1553.07 1723.914,1558.33 1708.585,1549.48C1706.459,1548.252 1704.481,1546.785 1702.69,1545.107L1630.866,1477.796L1653.246,1573.653C1653.804,1576.043 1654.086,1578.49 1654.086,1580.945C1654.086,1598.646 1639.715,1613.016 1622.015,1613.016C1604.314,1613.016 1589.943,1598.646 1589.943,1580.945C1589.943,1578.49 1590.225,1576.043 1590.783,1573.653L1613.164,1477.796L1541.339,1545.107C1539.548,1546.785 1537.57,1548.252 1535.444,1549.48C1520.115,1558.33 1500.484,1553.07 1491.634,1537.741C1482.784,1522.412 1488.044,1502.781 1503.373,1493.931C1505.499,1492.703 1507.759,1491.724 1510.108,1491.012L1604.313,1462.466L1510.108,1433.919C1507.759,1433.207 1505.499,1432.228 1503.373,1431.001C1488.044,1422.15 1482.784,1402.52 1491.634,1387.19C1500.484,1371.861 1520.115,1366.601 1535.444,1375.451C1537.57,1376.679 1539.548,1378.146 1541.339,1379.825L1613.164,1447.135L1590.783,1351.278Z" style="fill:rgb(235,235,235);stroke:rgb(29,62,73);stroke-width:11.81px;"/>
            </g>
        </g>
    </g>
</svg>
